<svg width="67" height="59" viewBox="0 0 67 59" fill="none" xmlns="http://www.w3.org/2000/svg">
<g clip-path="url(#clip0_1_4)">
<path d="M46.5694 24.0427C46.5257 24.0919 46.4976 24.1527 46.4887 24.2174C46.4541 24.3195 46.4195 24.4238 46.3826 24.5259C46.3541 24.5777 46.3368 24.6349 46.3319 24.6937L46.1613 24.9818L45.9308 25.4354L45.6795 25.889C45.6379 25.9299 45.605 25.9785 45.5827 26.0319L45.2507 26.5899C45.2098 26.6304 45.1783 26.6792 45.1585 26.7328L44.7758 27.2636L44.0588 28.1504L42.6755 29.5113L41.7718 30.2145L41.509 30.4141L41.0894 30.6863L40.5107 30.9811L40.1949 31.0401C40.1613 29.7081 40.5871 28.4041 41.4029 27.3407C42.6303 25.6468 43.5485 23.7557 44.1164 21.7519C45.9608 15.4509 42.475 9.7305 35.946 8.32649C31.8101 7.43283 28.0592 8.35598 25.0944 11.384C22.4824 14.0627 22.0375 17.465 22.5308 21.0555C22.842 23.3079 24.1446 25.1043 25.2973 26.9755C26.0765 28.2457 26.8074 29.5295 26.6806 31.0923C22.0375 28.849 19.0289 23.2897 19.5338 17.9028C20.1862 11.0801 25.5717 5.85871 32.4648 5.36878C34.7398 5.1912 37.0242 5.56651 39.117 6.46169C41.2098 7.35688 43.0469 8.74447 44.4666 10.5024C45.8862 12.2602 46.8449 14.3345 47.2582 16.5426C47.6715 18.7506 47.5268 21.0248 46.8368 23.165L46.5694 24.0427Z" fill="#F9C10A"/>
<path d="M26.6875 31.0922C26.8097 29.5295 26.0789 28.2457 25.3042 26.9755C24.1515 25.1042 22.8467 23.3078 22.5377 21.0555C22.0375 17.465 22.4824 14.0627 25.129 11.3727C28.0846 8.34463 31.8355 7.42148 35.9645 8.31514C42.4934 9.72369 45.97 15.4395 44.1349 21.7405C43.567 23.7443 42.6488 25.6355 41.4214 27.3293C40.6055 28.3928 40.1797 29.6967 40.2134 31.0287C40.1096 31.5459 40.1165 32.1197 39.8791 32.5688C39.3581 33.5532 38.7264 34.4741 38.1431 35.3837L39.2405 35.6105L39.2797 35.9257C38.9707 36.0732 38.671 36.3181 38.3575 36.3544C35.007 36.7325 31.6557 37.0855 28.3036 37.4137C28.1872 37.4086 28.0733 37.379 27.9695 37.3269C27.8657 37.2749 27.7745 37.2016 27.7019 37.112C27.6762 37.0197 27.675 36.9224 27.6984 36.8295C27.7219 36.7366 27.7691 36.6511 27.8356 36.5813C28.684 36.0142 28.3704 35.1659 27.9739 34.7463C26.9734 33.6757 26.8627 32.3942 26.6875 31.0922ZM27.5059 31.5799C27.5503 32.0264 27.6196 32.4701 27.7134 32.9091C28.0131 34.0432 28.8846 34.2972 29.9404 34.2201C31.3767 34.1157 31.8516 33.7415 32.0891 32.528C32.1559 32.3579 32.2067 32.1787 32.2897 32.0154C33.2003 30.2009 32.3957 27.9055 30.5214 27.1978C29.1381 26.6784 27.7226 26.2701 26.4247 25.8369C26.5423 25.8096 26.9019 25.61 27.22 25.669C28.2713 25.8391 29.2949 26.1227 30.3531 26.3109C30.7289 26.3744 31.1323 26.2746 31.5219 26.2474L31.6257 25.5987C30.5883 25.2131 29.5785 24.6914 28.5042 24.4805C27.3722 24.2537 26.178 24.3285 25.046 24.2718V23.5914H26.646L25.3988 22.2826L26.4984 21.829C26.5469 22.1964 26.4708 22.6433 26.6598 22.8315C27.0079 23.1763 27.5128 23.3668 27.9532 23.6209C28.0915 23.3396 28.3843 23.0334 28.3428 22.7794C28.1122 21.3572 28.3151 19.7355 26.4708 18.8758L27.771 18.8032V16.3717C27.8056 17.5058 28.7439 18.4131 28.5318 19.6719C28.4488 20.1687 28.1192 21.5409 29.6523 21.5092C29.4694 21.7336 29.3146 21.9788 29.1912 22.2395C28.9606 23.0425 29.258 23.7297 30.0027 24.0155C30.4937 24.2015 31.2937 24.265 31.6511 23.9928C32.4188 23.4099 32.1928 20.6654 31.3652 20.0258C29.7975 18.8146 29.6223 16.8685 28.6748 15.3374C28.6748 15.3374 28.7808 15.2626 28.9468 15.1469L30.7911 18.2543L31.2107 18.1386V15.5779C32.1075 16.4171 32.1098 17.2903 31.7848 18.2112C31.5081 18.996 31.5542 19.0845 32.2458 19.4156C32.9513 18.125 32.9259 18.0116 32.3473 16.2402C32.1167 15.5008 31.6557 14.6865 32.4787 13.8427L32.67 15.5915C33.5922 14.3825 35.093 14.1353 36.2457 14.9791C35.7847 14.9791 35.3997 14.8793 35.1276 14.9995C34.5052 15.2739 33.4862 15.5847 33.4147 16.0088C33.1602 17.7001 33.0553 19.4099 33.1012 21.119C33.1012 21.609 33.7305 21.8381 34.0787 21.2687C34.3121 20.8437 34.4401 20.3704 34.4521 19.8874C34.4913 19.1344 34.3599 18.3745 34.4106 17.6192C34.4268 17.3924 34.8072 17.1883 35.0193 16.9751L35.2659 17.1815L35.1438 18.4312C37.1564 18.6399 37.0111 16.0202 38.7586 15.8614C38.3806 16.6258 38.2192 17.3017 37.7973 17.7281C37.2232 18.3133 36.414 18.6717 35.7824 19.2047C35.5518 19.3998 35.5034 19.8148 35.372 20.1278C35.6786 20.2118 36.0636 20.4499 36.278 20.3547C36.9898 19.9998 37.672 19.5903 38.3183 19.1298C38.6581 18.8634 38.9771 18.5722 39.2728 18.2589C39.3442 18.7511 39.3926 19.0754 39.4526 19.4814C38.5857 19.9351 37.6982 20.5633 36.7091 20.8809C35.0953 21.4003 34.459 22.6954 33.8412 24.0064C33.7029 24.299 33.9957 24.789 34.0902 25.1882L34.5282 25.322C35.1207 24.5916 35.6971 23.8454 36.3126 23.1332C36.8405 22.523 37.35 21.8698 37.984 21.3844C38.9638 20.6359 40.0428 20.0235 40.6837 19.5971L41.5666 20.5044C41.4583 20.2594 40.7713 20.3388 40.5684 20.6881C40.2825 21.1826 40.0289 21.296 39.4918 21.3685C38.8766 21.4755 38.3116 21.7711 37.8777 22.2132C37.4437 22.6552 37.163 23.221 37.0757 23.8295C37.8296 23.884 38.92 24.2696 39.2658 23.9271C39.9736 23.2466 40.4693 23.7706 41.1793 23.673C40.0958 24.8071 39.8998 24.8729 38.8001 24.6688C37.0619 24.3421 34.7703 26.4447 35.0193 28.2185C35.2314 29.7087 35.5841 31.183 35.8746 32.6618C36.1835 32.9091 36.6676 33.4262 36.776 33.3582C37.2371 33.0724 37.5737 32.6165 37.9564 32.2241C38.4174 31.2147 39.0307 30.2417 39.2728 29.1847C39.5945 27.8462 40.2353 26.6022 41.1424 25.5556C45.585 20.1868 44.0842 11.1141 35.9783 9.2519C34.6267 8.97333 33.2352 8.93569 31.8701 9.14076C26.3947 9.87566 22.5677 13.7928 22.9181 19.5177C23.0472 21.6407 23.8103 23.5755 24.9723 25.3401C26.2379 27.2636 27.2615 29.2596 27.5059 31.5799ZM32.1352 24.1244C32.2366 25.9389 32.5963 27.4201 32.949 28.9443C33.3017 30.4685 33.0274 32.1969 33.0274 33.8345C34.5997 32.6868 34.1386 26.4583 32.1352 24.1244ZM35.7893 35.7602L35.7731 35.3587C34.874 35.2725 33.9772 35.1591 33.0758 35.1069C32.0097 35.0257 30.9398 35.0045 29.8713 35.0434C29.5992 35.057 29.3041 35.4971 29.1312 35.8055C29.0897 35.8758 29.5185 36.3862 29.7053 36.3703C31.7364 36.2047 33.7605 35.9734 35.7893 35.7602Z" fill="#0C0806"/>
<path d="M28.0339 42.3152C28.2921 42.0748 28.5272 41.6529 28.8108 41.6189C31.8493 41.262 34.8933 40.946 37.9426 40.6708C38.2838 40.6413 38.6503 40.8976 39.0053 41.0133C38.761 41.2401 38.5005 41.4533 38.2768 41.6938C38.0698 41.9001 37.8985 42.1384 37.7696 42.3992C36.1927 46.0645 32.3496 46.5749 29.7537 43.4788C29.4033 43.0615 28.8984 42.7734 28.4673 42.4241L28.0339 42.3152ZM35.5196 41.8616L30.2586 42.5421C30.9779 44.1298 32.4603 45.0847 33.7329 44.9123C34.7887 44.7581 35.3098 43.9256 35.5196 41.8548V41.8616Z" fill="#0C0806"/>
<path d="M27.3999 40.1945C30.9687 39.8203 34.5467 39.4369 38.1062 39.0922C38.3852 39.0672 38.6918 39.3031 38.9846 39.4165C38.7079 39.6048 38.4497 39.9269 38.1546 39.9586C34.8103 40.3427 31.4613 40.6935 28.1076 41.011C27.8287 41.0383 27.5198 40.7842 27.2247 40.664L27.3999 40.1945Z" fill="#0C0806"/>
<path d="M39.8284 37.6519C39.5978 37.7675 39.3927 37.9603 39.1575 37.9853C35.7255 38.3573 32.2897 38.7103 28.85 39.0445C28.6425 39.0649 28.4097 38.8177 28.186 38.6884C28.3728 38.5546 28.5457 38.3255 28.7439 38.3028C31.9823 37.9278 35.2237 37.5725 38.4682 37.2368C38.9019 37.2281 39.3355 37.2577 39.7638 37.3252L39.8284 37.6519Z" fill="#0C0806"/>
<path d="M44.075 28.1391L44.7919 27.2523L44.075 28.1391Z" fill="#FDEEA2"/>
<path d="M41.7972 30.2031L42.7009 29.5L41.7972 30.2031Z" fill="#FDEEA2"/>
<path d="M46.5694 24.0427L46.846 23.1695L46.5694 24.0427Z" fill="#FDEEA2"/>
<path d="M45.6957 25.8755L45.947 25.4218L45.6957 25.8755Z" fill="#FDEEA2"/>
<path d="M45.2668 26.5763L45.5988 26.0183L45.2668 26.5763Z" fill="#FDEEA2"/>
<path d="M44.7919 27.25L45.1862 26.7192L44.7919 27.25Z" fill="#FDEEA2"/>
<path d="M40.5361 30.9698L41.1148 30.6749L40.5361 30.9698Z" fill="#FDEEA2"/>
<path d="M46.3896 24.5214C46.4265 24.4193 46.4611 24.315 46.4956 24.2129C46.4611 24.315 46.4242 24.417 46.3896 24.5214Z" fill="#FDEEA2"/>
<path d="M46.1683 24.9773L46.3389 24.6892L46.1683 24.9773Z" fill="#FDEEA2"/>
<path d="M41.5344 30.3937L41.7972 30.1941L41.5344 30.3937Z" fill="#FDEEA2"/>
<path d="M35.0423 16.9796C34.8302 17.1928 34.4499 17.397 34.4337 17.6238C34.383 18.3723 34.5144 19.1321 34.4752 19.892C34.4631 20.3749 34.3352 20.8483 34.1017 21.2733C33.7536 21.8426 33.1288 21.6135 33.1242 21.1236C33.0749 19.4125 33.1767 17.7004 33.4286 16.0066C33.5 15.5824 34.519 15.2717 35.1415 14.9972C35.4135 14.877 35.787 14.9768 36.2596 14.9768C35.1069 14.1331 33.6153 14.3803 32.6839 15.5892L32.5064 13.8359C31.681 14.6797 32.1329 15.494 32.375 16.2334C32.9536 18.0071 32.979 18.1205 32.2735 19.4089C31.5704 19.0777 31.5312 18.9892 31.8125 18.2045C32.1375 17.2836 32.1352 16.4103 31.2384 15.5711V18.1455L30.8188 18.2612L28.9745 15.1537C28.8085 15.2694 28.7001 15.3397 28.7025 15.3443C29.65 16.8753 29.8252 18.8214 31.3929 20.0326C32.2205 20.6722 32.4464 23.4167 31.6787 23.9997C31.3214 24.2718 30.526 24.2083 30.0304 24.0223C29.2857 23.7366 28.9814 23.0493 29.2189 22.2464C29.3423 21.9856 29.4971 21.7404 29.6799 21.516C28.1468 21.5478 28.4765 20.1755 28.5595 19.6788C28.7716 18.4245 27.8333 17.5195 27.7987 16.3786V18.8123L26.4985 18.8849C28.3428 19.7445 28.1399 21.3663 28.3705 22.7885C28.412 23.0425 28.1192 23.3487 27.9809 23.6299C27.5405 23.3759 27.0356 23.1763 26.6875 22.8406C26.4985 22.6524 26.5746 22.2055 26.5261 21.8381L25.4265 22.2917L26.6737 23.6005H25.0368V24.2809C26.1895 24.3376 27.3722 24.265 28.495 24.4896C29.5693 24.7028 30.5698 25.2222 31.6165 25.6078L31.5128 26.2565C31.1231 26.2837 30.7197 26.3835 30.3439 26.32C29.2949 26.1363 28.269 25.8482 27.2108 25.6781C26.8927 25.6259 26.5331 25.8187 26.4155 25.846C27.7134 26.2701 29.1336 26.6784 30.5122 27.2069C32.3865 27.9145 33.1911 30.2031 32.2805 32.0245C32.1975 32.1878 32.1467 32.367 32.0799 32.5371C31.5266 32.5575 30.9433 32.6959 30.4269 32.5689C29.431 32.3216 28.4719 31.9247 27.4967 31.589C27.2523 29.2732 26.2287 27.2795 24.9608 25.3492C23.8081 23.5846 23.0357 21.6498 22.9066 19.5268C22.5562 13.8019 26.3832 9.88475 31.8586 9.14986C33.2237 8.94479 34.6152 8.98243 35.9668 9.261C44.0842 11.1141 45.585 20.1868 41.1586 25.5647C40.2515 26.6113 39.6106 27.8553 39.2889 29.1938C39.0584 30.2508 38.4244 31.2238 37.9725 32.2332L35.8977 32.6732C35.6072 31.1943 35.2544 29.7246 35.0423 28.2298C34.7934 26.4561 37.0849 24.3535 38.8232 24.6801C39.9229 24.8843 40.1189 24.8094 41.2024 23.6844C40.4923 23.7819 39.9967 23.2489 39.2889 23.9384C38.9362 24.2809 37.8526 23.8953 37.0988 23.8409C37.1874 23.2349 37.468 22.6719 37.9004 22.2317C38.3329 21.7916 38.8954 21.4967 39.5079 21.389C40.0451 21.3051 40.2987 21.1917 40.5846 20.7085C40.7874 20.3592 41.4745 20.2798 41.5828 20.5248L40.6998 19.6175C40.0589 20.0349 38.98 20.6564 38.0002 21.4049C37.3662 21.8903 36.8475 22.539 36.3288 23.1536C35.7132 23.8658 35.1369 24.6121 34.5444 25.3424L34.1063 25.2086C34.0118 24.8094 33.719 24.3195 33.8574 24.0269C34.4752 22.7136 35.1115 21.4207 36.7253 20.9013C37.7143 20.5838 38.6019 19.9578 39.4687 19.5019C39.4088 19.0958 39.3604 18.7715 39.2889 18.2793C38.9933 18.5927 38.6743 18.8838 38.3345 19.1503C37.6882 19.6107 37.006 20.0202 36.2942 20.3751C36.0775 20.4772 35.6948 20.239 35.3882 20.1483C35.5196 19.8353 35.5634 19.4202 35.7985 19.2251C36.4371 18.6921 37.2394 18.3337 37.8135 17.7485C38.2353 17.3221 38.3967 16.6462 38.7748 15.8818C37.0273 16.0406 37.1725 18.6604 35.1599 18.4517C35.2014 18.0275 35.2429 17.6147 35.2821 17.2019C36.3265 16.8594 36.3265 16.8594 35.6694 16.0996L35.0423 16.9796Z" fill="#F9C10A"/>
<path d="M35.0423 16.9796L35.6763 16.0723C36.3333 16.8322 36.3333 16.8322 35.289 17.1747L35.0423 16.9796Z" fill="#0C0806"/>
<path d="M8.93349 54.1279C8.94288 54.7916 8.828 55.4513 8.5946 56.074C8.38783 56.6293 8.06131 57.134 7.63747 57.5533C7.21364 57.9726 6.70255 58.2967 6.13933 58.5033C5.52058 58.7322 4.86378 58.8453 4.20278 58.8367H1.79592C1.67452 58.8353 1.55374 58.8193 1.43628 58.789C1.30598 58.7567 1.18366 58.6989 1.07663 58.6189C0.962304 58.532 0.869982 58.4202 0.8069 58.2923C0.73344 58.1418 0.697858 57.9761 0.703157 57.8092V50.1949C0.696477 50.0545 0.719458 49.9143 0.770647 49.7832C0.821836 49.652 0.900121 49.5327 1.00056 49.4328C1.10257 49.337 1.22309 49.2624 1.35496 49.2133C1.48683 49.1642 1.62737 49.1417 1.76826 49.147H4.07368C4.78187 49.1341 5.48607 49.2542 6.14855 49.5008C6.72789 49.7204 7.25008 50.0645 7.67704 50.5079C8.10216 50.9601 8.42509 51.4959 8.62457 52.0798C8.84353 52.7406 8.94796 53.433 8.93349 54.1279ZM6.77562 54.0327C6.77947 53.6259 6.72593 53.2206 6.61655 52.8283C6.52098 52.4809 6.35383 52.1567 6.1255 51.8756C5.89584 51.6069 5.60415 51.3961 5.2748 51.2609C4.88258 51.1017 4.46098 51.0244 4.03679 51.0341H2.77803V56.9677H4.17511C4.57157 56.9757 4.965 56.8983 5.32782 56.7409C5.64605 56.5981 5.92564 56.3837 6.14394 56.1149C6.36501 55.8388 6.52731 55.5217 6.62116 55.1826C6.72651 54.8082 6.7785 54.4212 6.77562 54.0327Z" fill="black"/>
<path d="M16.7212 55.2303C16.7236 55.7245 16.637 56.2152 16.4653 56.6796C16.3036 57.123 16.0571 57.5319 15.7391 57.884C15.4124 58.2403 15.0134 58.5251 14.5678 58.7201C14.1223 58.915 13.64 59.0158 13.1524 59.0158C12.6647 59.0158 12.1825 58.915 11.7369 58.7201C11.2914 58.5251 10.8923 58.2403 10.5657 57.884C10.2477 57.5319 10.0012 57.123 9.83951 56.6796C9.6678 56.2152 9.58115 55.7245 9.58361 55.2303C9.58203 54.74 9.67108 54.2534 9.84642 53.7945C10.0134 53.35 10.2619 52.9395 10.5795 52.5833C10.8946 52.2329 11.278 51.9483 11.7069 51.7463C12.1599 51.5401 12.6532 51.4332 13.1524 51.4332C13.6516 51.4332 14.1448 51.5401 14.5979 51.7463C15.0268 51.9483 15.4102 52.2329 15.7252 52.5833C16.0429 52.9395 16.2914 53.35 16.4584 53.7945C16.6337 54.2534 16.7228 54.74 16.7212 55.2303ZM14.7293 55.2303C14.728 54.9939 14.6978 54.7586 14.6394 54.5294C14.584 54.2993 14.488 54.0805 14.3558 53.883C14.2282 53.6937 14.0607 53.5336 13.8648 53.4134C13.6473 53.293 13.4019 53.2298 13.1524 53.2298C12.9028 53.2298 12.6575 53.293 12.44 53.4134C12.2441 53.5336 12.0766 53.6937 11.949 53.883C11.8168 54.0805 11.7208 54.2993 11.6654 54.5294C11.607 54.7586 11.5768 54.9939 11.5755 55.2303C11.576 55.4693 11.6086 55.7072 11.6723 55.9379C11.7321 56.1635 11.8303 56.3775 11.9628 56.5708C12.0912 56.7551 12.2588 56.9099 12.4538 57.0244C12.6678 57.1403 12.9081 57.2012 13.1524 57.2012C13.3967 57.2012 13.637 57.1403 13.8509 57.0244C14.046 56.9099 14.2135 56.7551 14.342 56.5708C14.4744 56.3775 14.5727 56.1635 14.6325 55.9379C14.6962 55.7072 14.7287 55.4693 14.7293 55.2303Z" fill="black"/>
<path d="M23.8034 50.086C23.8016 50.3207 23.7205 50.5481 23.5729 50.7325C23.4879 50.8352 23.379 50.9163 23.2554 50.9688C23.1318 51.0214 22.9971 51.0437 22.8628 51.0341H21.3551V57.9475C21.3645 58.0873 21.3447 58.2275 21.2969 58.3594C21.249 58.4913 21.1742 58.6122 21.0769 58.7145C20.9796 58.8168 20.8621 58.8983 20.7315 58.9541C20.6008 59.0098 20.46 59.0386 20.3176 59.0386C20.1753 59.0386 20.0344 59.0098 19.9038 58.9541C19.7732 58.8983 19.6556 58.8168 19.5583 58.7145C19.4611 58.6122 19.3862 58.4913 19.3384 58.3594C19.2905 58.2275 19.2707 58.0873 19.2802 57.9475V51.0341H17.7724C17.6378 51.0441 17.5026 51.0219 17.3786 50.9694C17.2545 50.9168 17.1453 50.8356 17.0601 50.7325C16.9124 50.5481 16.8313 50.3207 16.8295 50.086C16.8327 49.8501 16.9218 49.6231 17.0808 49.4464C17.1657 49.3488 17.2721 49.2717 17.392 49.221C17.512 49.1702 17.6421 49.1473 17.7724 49.1538H22.8628C22.9932 49.1473 23.1233 49.1702 23.2432 49.221C23.3631 49.2717 23.4696 49.3488 23.5544 49.4464C23.7126 49.6234 23.8009 49.8504 23.8034 50.086Z" fill="black"/>
<path d="M32.4902 54.1279C32.4996 54.7916 32.3847 55.4513 32.1513 56.074C31.9446 56.6293 31.618 57.134 31.1942 57.5533C30.7704 57.9726 30.2593 58.2967 29.6961 58.5033C29.0773 58.7322 28.4205 58.8453 27.7595 58.8367H25.3596C25.2382 58.8353 25.1174 58.8193 24.9999 58.789C24.8696 58.7567 24.7473 58.6989 24.6403 58.6189C24.5268 58.5339 24.4345 58.4246 24.3706 58.2991C24.2971 58.1486 24.2615 57.9829 24.2668 57.816V50.1949C24.2601 50.0545 24.2831 49.9143 24.3343 49.7832C24.3855 49.652 24.4638 49.5327 24.5642 49.4328C24.6662 49.337 24.7867 49.2624 24.9186 49.2133C25.0505 49.1642 25.191 49.1417 25.3319 49.147H27.6373C28.3455 49.1341 29.0497 49.2542 29.7122 49.5008C30.2915 49.7204 30.8137 50.0645 31.2407 50.5079C31.6658 50.9601 31.9887 51.4959 32.1882 52.0798C32.4048 52.741 32.5069 53.4334 32.4902 54.1279ZM30.3324 54.0327C30.3362 53.6259 30.2827 53.2206 30.1733 52.8283C30.0777 52.4809 29.9106 52.1567 29.6822 51.8756C29.4539 51.6027 29.1621 51.388 28.8315 51.2496C28.4393 51.0903 28.0177 51.0131 27.5935 51.0228H26.3348V56.9564H27.7319C28.1283 56.9644 28.5217 56.887 28.8846 56.7295C29.2028 56.5868 29.4824 56.3723 29.7007 56.1035C29.9218 55.8274 30.0841 55.5104 30.1779 55.1713C30.2822 54.8005 30.3342 54.4174 30.3324 54.0327Z" fill="black"/>
<path d="M44.566 58.0201C44.5724 58.1527 44.5497 58.2851 44.4996 58.4084C44.4495 58.5317 44.3731 58.6429 44.2755 58.7346C44.0848 58.9106 43.8315 59.0058 43.5701 59C43.4325 59.012 43.2938 58.9971 43.1621 58.9562C43.0303 58.9154 42.9081 58.8493 42.8024 58.7618C42.6227 58.5632 42.5134 58.3124 42.4911 58.0474L41.675 52.4268H41.6474L39.9875 58.2107C39.9562 58.3002 39.9169 58.3867 39.8699 58.4692C39.8158 58.5643 39.7483 58.6514 39.6693 58.7278C39.5782 58.8144 39.4699 58.8816 39.3512 58.9251C39.0458 59.025 38.7159 59.025 38.4106 58.9251C38.2918 58.8816 38.1835 58.8144 38.0924 58.7278C38.0135 58.6514 37.9459 58.5643 37.8918 58.4692C37.8448 58.3867 37.8055 58.3002 37.7743 58.2107L36.1144 52.4268H36.0867L35.2729 58.0474C35.2506 58.3124 35.1413 58.5632 34.9616 58.7618C34.8559 58.8493 34.7337 58.9154 34.6019 58.9562C34.4702 58.9971 34.3315 59.012 34.1939 59C33.9325 59.0058 33.6792 58.9106 33.4885 58.7346C33.3909 58.6429 33.3145 58.5317 33.2644 58.4084C33.2143 58.2851 33.1916 58.1527 33.198 58.0201V57.9113C33.1985 57.8701 33.2032 57.8291 33.2118 57.7888L34.4983 50.0316C34.5211 49.9018 34.568 49.7773 34.6366 49.6641C34.7123 49.5348 34.8107 49.4196 34.9271 49.3239C35.0515 49.2214 35.1915 49.1387 35.342 49.0789C35.5046 49.0143 35.6785 48.9819 35.8538 48.9837C36.1813 48.9757 36.5006 49.0845 36.753 49.2899C36.9803 49.4636 37.149 49.7007 37.2371 49.9703L38.8693 55.4412H38.897L40.5292 49.9703C40.6173 49.7007 40.786 49.4636 41.0134 49.2899C41.2081 49.1368 41.4403 49.0367 41.6867 48.9997C41.9331 48.9627 42.1851 48.99 42.4174 49.0789C42.5705 49.1376 42.713 49.2204 42.8393 49.3239C42.9556 49.4196 43.054 49.5348 43.1297 49.6641C43.1983 49.7773 43.2452 49.9018 43.2681 50.0316L44.5545 57.7888C44.5631 57.8291 44.5678 57.8701 44.5683 57.9113L44.566 58.0201Z" fill="black"/>
<path d="M52.0632 55.8427C52.07 56.2966 51.9731 56.7462 51.7796 57.1583C51.5979 57.539 51.3362 57.8776 51.0119 58.1517C50.68 58.429 50.2974 58.6415 49.8846 58.7777C49.4465 58.9277 48.986 59.0044 48.5221 59.0046C48.1962 59.001 47.8706 58.9806 47.5469 58.9433C47.1714 58.9032 46.8008 58.8273 46.4403 58.7165C46.1116 58.6236 45.8041 58.4696 45.5343 58.2629C45.4148 58.1712 45.3188 58.0533 45.254 57.9186C45.1891 57.7839 45.1572 57.6361 45.1608 57.4871C45.1557 57.2379 45.2444 56.9956 45.4098 56.8067C45.4935 56.7118 45.598 56.6368 45.7154 56.5873C45.8327 56.5378 45.96 56.5151 46.0876 56.5209C46.2614 56.5221 46.434 56.5497 46.5994 56.6025C46.7746 56.657 46.959 56.7182 47.1527 56.7863C47.3463 56.8543 47.5492 56.9156 47.7613 56.97C47.9736 57.0244 48.1921 57.0519 48.4114 57.0516C48.7949 57.0807 49.1746 56.961 49.4696 56.7182C49.5849 56.6109 49.6758 56.4809 49.7366 56.3367C49.7974 56.1925 49.8266 56.0373 49.8223 55.8813C49.8273 55.7567 49.7986 55.6331 49.739 55.5231C49.6795 55.4131 49.5913 55.3207 49.4835 55.2552C49.2166 55.092 48.928 54.966 48.6258 54.881C48.28 54.7767 47.9089 54.6701 47.5123 54.5612C47.1241 54.4543 46.7502 54.302 46.3988 54.1075C46.0576 53.9212 45.7643 53.6605 45.5412 53.3454C45.2983 52.968 45.1799 52.526 45.2023 52.0798C45.1962 51.6362 45.2907 51.1968 45.4789 50.7937C45.654 50.4204 45.9088 50.0885 46.2259 49.8207C46.5488 49.5522 46.9193 49.3446 47.3187 49.2083C47.7402 49.0588 48.1847 48.9821 48.6328 48.9814C48.8851 48.986 49.1369 49.0065 49.3866 49.0427C49.6938 49.0859 49.9953 49.162 50.2857 49.2695C50.5576 49.3634 50.8105 49.504 51.0327 49.6846C51.1329 49.765 51.2131 49.8668 51.267 49.9824C51.321 50.098 51.3473 50.2243 51.3439 50.3514C51.3468 50.6065 51.2587 50.8545 51.0949 51.0523C51.0146 51.1524 50.9112 51.2323 50.7934 51.2855C50.6756 51.3387 50.5467 51.3638 50.4171 51.3585C50.2788 51.3585 50.1412 51.3378 50.0091 51.2973C49.8754 51.2564 49.737 51.2088 49.5941 51.1544C49.4436 51.0974 49.2896 51.0497 49.133 51.0115C48.9518 50.9689 48.766 50.9484 48.5797 50.9502C48.2998 50.9465 48.0251 51.0255 47.7913 51.1771C47.6796 51.2473 47.5888 51.3453 47.528 51.4613C47.4673 51.5772 47.4388 51.7068 47.4455 51.8371C47.4437 51.9501 47.4747 52.0613 47.5347 52.1576C47.5947 52.254 47.6813 52.3316 47.7844 52.3815C48.0566 52.5274 48.3441 52.6438 48.642 52.7285L49.7555 53.0619C50.1485 53.1783 50.5233 53.3477 50.869 53.5654C51.2596 53.8048 51.577 54.1438 51.7877 54.5463C51.9983 54.9488 52.0943 55.3999 52.0655 55.8518L52.0632 55.8427Z" fill="black"/>
<path d="M54.9819 49.6505C54.9841 49.7978 54.9565 49.9441 54.9007 50.0808C54.8449 50.2175 54.762 50.3419 54.6568 50.4467C54.5555 50.5541 54.4322 50.6393 54.2952 50.6967C54.1582 50.7542 54.0104 50.7826 53.8614 50.7801C53.7152 50.7804 53.5709 50.7478 53.4395 50.6848C53.3072 50.6225 53.1858 50.5398 53.0799 50.4399C52.972 50.3378 52.8863 50.2152 52.828 50.0795C52.7697 49.9438 52.7401 49.7978 52.741 49.6505C52.7416 49.5119 52.7722 49.3751 52.8309 49.2491C52.8901 49.1185 52.9747 49.0006 53.0799 48.902C53.1858 48.8069 53.3074 48.7302 53.4395 48.6752C53.5723 48.6169 53.716 48.5868 53.8614 48.5868C54.0068 48.5868 54.1506 48.6169 54.2833 48.6752C54.4154 48.7302 54.537 48.8069 54.643 48.902C54.747 48.999 54.8314 49.1145 54.8919 49.2423C54.9521 49.3702 54.9828 49.5096 54.9819 49.6505ZM54.8689 57.9113C54.8821 58.1994 54.7831 58.4817 54.5922 58.7006C54.4988 58.7952 54.387 58.8705 54.2634 58.9219C54.1399 58.9733 54.0071 58.9997 53.8729 58.9997C53.7388 58.9997 53.606 58.9733 53.4825 58.9219C53.3589 58.8705 53.2471 58.7952 53.1537 58.7006C52.9628 58.4817 52.8638 58.1994 52.877 57.9113V52.5221C52.8638 52.2339 52.9628 51.9517 53.1537 51.7327C53.2471 51.6381 53.3589 51.5628 53.4825 51.5115C53.606 51.4601 53.7388 51.4336 53.8729 51.4336C54.0071 51.4336 54.1399 51.4601 54.2634 51.5115C54.387 51.5628 54.4988 51.6381 54.5922 51.7327C54.7831 51.9517 54.8821 52.2339 54.8689 52.5221V57.9113Z" fill="black"/>
<path d="M58.0527 49.6505C58.055 49.7978 58.0274 49.9441 57.9716 50.0808C57.9158 50.2175 57.8328 50.3419 57.7276 50.4467C57.6263 50.5541 57.5031 50.6393 57.3661 50.6967C57.229 50.7542 57.0812 50.7826 56.9323 50.7801C56.7861 50.7804 56.6418 50.7478 56.5104 50.6848C56.3781 50.6225 56.2567 50.5398 56.1507 50.4399C56.0428 50.3378 55.9571 50.2152 55.8989 50.0795C55.8406 49.9438 55.811 49.7978 55.8118 49.6505C55.8124 49.5119 55.8431 49.3751 55.9018 49.2491C55.9609 49.1185 56.0455 49.0006 56.1507 48.902C56.2567 48.8069 56.3783 48.7302 56.5104 48.6752C56.6431 48.6169 56.7869 48.5868 56.9323 48.5868C57.0777 48.5868 57.2214 48.6169 57.3542 48.6752C57.4862 48.7302 57.6079 48.8069 57.7138 48.902C57.8178 48.999 57.9023 49.1145 57.9628 49.2423C58.023 49.3702 58.0537 49.5096 58.0527 49.6505ZM57.9282 57.9113C57.9414 58.1994 57.8425 58.4817 57.6516 58.7006C57.5581 58.7952 57.4463 58.8705 57.3227 58.9219C57.1992 58.9733 57.0664 58.9997 56.9323 58.9997C56.7981 58.9997 56.6654 58.9733 56.5418 58.9219C56.4183 58.8705 56.3065 58.7952 56.213 58.7006C56.0221 58.4817 55.9232 58.1994 55.9363 57.9113V52.5221C55.9232 52.2339 56.0221 51.9517 56.213 51.7327C56.3065 51.6381 56.4183 51.5628 56.5418 51.5115C56.6654 51.4601 56.7981 51.4336 56.9323 51.4336C57.0664 51.4336 57.1992 51.4601 57.3227 51.5115C57.4463 51.5628 57.5581 51.6381 57.6516 51.7327C57.8425 51.9517 57.9414 52.2339 57.9282 52.5221V57.9113Z" fill="black"/>
<path d="M66.5735 57.3851C66.5784 57.5349 66.5507 57.6841 66.4923 57.8226C66.4338 57.9611 66.346 58.0857 66.2346 58.188C65.9946 58.405 65.7122 58.5717 65.4047 58.6779C65.0738 58.7967 64.7304 58.8789 64.3811 58.9229C64.0754 58.9648 63.7674 58.9875 63.4589 58.9909C62.7926 58.9998 62.1321 58.8675 61.5223 58.6031C60.9539 58.3534 60.4432 57.9922 60.0215 57.5416C59.5944 57.0799 59.2631 56.5406 59.0463 55.9539C58.5853 54.6751 58.5853 53.2792 59.0463 52.0004C59.2625 51.4134 59.5938 50.8739 60.0215 50.4127C60.4422 49.9627 60.9533 49.6036 61.5223 49.358C62.1333 49.0979 62.7933 48.9681 63.4589 48.9769C63.7552 48.9804 64.0509 49.0032 64.3442 49.045C64.6779 49.0885 65.0053 49.1707 65.3194 49.2899C65.6096 49.3967 65.877 49.556 66.1078 49.7595C66.2984 49.9353 66.4138 50.176 66.4305 50.4326C66.4472 50.6892 66.364 50.9424 66.1977 51.1408C66.1218 51.2297 66.0263 51.3004 65.9184 51.3476C65.8106 51.3947 65.6932 51.4171 65.5753 51.413C65.4379 51.4131 65.3018 51.3877 65.1741 51.3381L64.7453 51.1748C64.5689 51.1099 64.3888 51.0553 64.2058 51.0115C63.9608 50.9571 63.71 50.932 63.4589 50.9366C63.0655 50.9275 62.6759 51.014 62.3246 51.1884C62.007 51.3534 61.7306 51.5858 61.5154 51.8689C61.2921 52.1631 61.1257 52.4953 61.0244 52.8487C60.9119 53.2336 60.856 53.6323 60.8584 54.0327C60.856 54.4242 60.9119 54.8139 61.0244 55.1895C61.1263 55.5357 61.2954 55.8592 61.5223 56.1421C61.744 56.4146 62.0222 56.6373 62.3385 56.7953C62.6865 56.9644 63.0708 57.0484 63.4589 57.0403C63.7154 57.045 63.9713 57.0152 64.2197 56.9519C64.4132 56.8994 64.6027 56.8334 64.7868 56.7545L65.2479 56.5572C65.3785 56.4999 65.5198 56.4698 65.6629 56.4687C65.8058 56.4653 65.947 56.5006 66.0709 56.5708C66.1805 56.6339 66.2767 56.717 66.3545 56.8158C66.4256 56.9063 66.4817 57.0073 66.5205 57.1152C66.5527 57.2018 66.5706 57.2929 66.5735 57.3851Z" fill="black"/>
<path d="M33.4999 0C28.1883 0.00317532 22.9536 1.24815 18.227 3.63232C13.5005 6.01649 9.41744 9.4716 6.31444 13.7129C3.21144 17.9542 1.17729 22.8603 0.379645 28.0268C-0.418003 33.1933 0.0436831 38.4724 1.72665 43.4289H3.03613C1.3423 38.6456 0.836687 33.533 1.56156 28.5182C2.28643 23.5034 4.22072 18.7321 7.20279 14.6031C10.1849 10.474 14.1281 7.10714 18.703 4.7838C23.2779 2.46046 28.3515 1.24813 33.4999 1.24813C38.6483 1.24813 43.7219 2.46046 48.2968 4.7838C52.8717 7.10714 56.8149 10.474 59.797 14.6031C62.7791 18.7321 64.7134 23.5034 65.4383 28.5182C66.1631 33.533 65.6575 38.6456 63.9637 43.4289H65.2755C66.9569 38.4722 67.4173 33.1934 66.6189 28.0274C65.8205 22.8613 63.786 17.9557 60.683 13.7148C57.5801 9.47388 53.4974 6.01889 48.7714 3.63444C44.0453 1.24999 38.8111 0.00431124 33.4999 0V0Z" fill="black"/>
</g>
<defs>
<clipPath id="clip0_1_4">
<rect width="67" height="59" fill="white"/>
</clipPath>
</defs>
</svg>
