<svg width="16" height="16" xmlns="http://www.w3.org/2000/svg" class="bi bi-info-circle">

 <g>
  <title>background</title>
  <rect fill="none" id="canvas_background" height="402" width="582" y="-1" x="-1"/>
 </g>
 <g>
  <title>Layer 1</title>
  <path fill="#f9c10a" id="svg_1" d="m8,15a7,7 0 1 1 0,-14a7,7 0 0 1 0,14zm0,1a8,8 0 1 0 0,-16a8,8 0 0 0 0,16z"/>
  <path fill="#f9c10a" id="svg_2" d="m8.93,6.588l-2.29,0.287l-0.082,0.38l0.45,0.083c0.294,0.07 0.352,0.176 0.288,0.469l-0.738,3.468c-0.194,0.897 0.105,1.319 0.808,1.319c0.545,0 1.178,-0.252 1.465,-0.598l0.088,-0.416c-0.2,0.176 -0.492,0.246 -0.686,0.246c-0.275,0 -0.375,-0.193 -0.304,-0.533l1.001,-4.705zm0.07,-2.088a1,1 0 1 1 -2,0a1,1 0 0 1 2,0z"/>
 </g>
</svg>